<svg xmlns="http://www.w3.org/2000/svg" viewBox="0 0 512 512">
  <defs>
    <linearGradient id="bg" x1="0%" y1="0%" x2="100%" y2="100%">
      <stop offset="0%" style="stop-color:#1a1a2e"/>
      <stop offset="100%" style="stop-color:#0d0d1a"/>
    </linearGradient>
  </defs>
  <!-- Background -->
  <rect width="512" height="512" rx="96" fill="url(#bg)"/>
  <!-- Board cross shape -->
  <rect x="96" y="96" width="140" height="140" rx="12" fill="#E53935" opacity="0.9"/>
  <rect x="276" y="96" width="140" height="140" rx="12" fill="#43A047" opacity="0.9"/>
  <rect x="276" y="276" width="140" height="140" rx="12" fill="#FDD835" opacity="0.9"/>
  <rect x="96" y="276" width="140" height="140" rx="12" fill="#1E88E5" opacity="0.9"/>
  <!-- Center diamond -->
  <rect x="216" y="216" width="80" height="80" rx="8" fill="#2a2a4a" transform="rotate(45 256 256)"/>
  <!-- Tokens -->
  <circle cx="145" cy="155" r="22" fill="#FF6F60" stroke="#fff" stroke-width="3"/>
  <circle cx="195" cy="155" r="22" fill="#FF6F60" stroke="#fff" stroke-width="3"/>
  <circle cx="325" cy="155" r="22" fill="#76D275" stroke="#fff" stroke-width="3"/>
  <circle cx="375" cy="155" r="22" fill="#76D275" stroke="#fff" stroke-width="3"/>
  <circle cx="325" cy="345" r="22" fill="#FFFF6B" stroke="#fff" stroke-width="3"/>
  <circle cx="375" cy="345" r="22" fill="#FFFF6B" stroke="#fff" stroke-width="3"/>
  <circle cx="145" cy="345" r="22" fill="#6AB7FF" stroke="#fff" stroke-width="3"/>
  <circle cx="195" cy="345" r="22" fill="#6AB7FF" stroke="#fff" stroke-width="3"/>
  <!-- Shine highlights on tokens -->
  <circle cx="139" cy="148" r="8" fill="rgba(255,255,255,0.4)"/>
  <circle cx="189" cy="148" r="8" fill="rgba(255,255,255,0.4)"/>
  <circle cx="319" cy="148" r="8" fill="rgba(255,255,255,0.4)"/>
  <circle cx="369" cy="148" r="8" fill="rgba(255,255,255,0.4)"/>
  <circle cx="319" cy="338" r="8" fill="rgba(255,255,255,0.4)"/>
  <circle cx="369" cy="338" r="8" fill="rgba(255,255,255,0.4)"/>
  <circle cx="139" cy="338" r="8" fill="rgba(255,255,255,0.4)"/>
  <circle cx="189" cy="338" r="8" fill="rgba(255,255,255,0.4)"/>
</svg>
